<svg width="26" height="25" viewBox="0 0 26 25" fill="none" xmlns="http://www.w3.org/2000/svg">
<path d="M24.0253 0H1.40951C1.03654 0.00261905 0.679637 0.143711 0.415901 0.392795C0.152165 0.641879 0.00277311 0.978957 0 1.3312V22.6905C0.00277311 23.0428 0.152165 23.3799 0.415901 23.6289C0.679637 23.878 1.03654 24.0191 1.40951 24.0217H13.5864V14.7333H10.2799V11.1H13.5864V8.42763C13.5864 5.32482 15.5894 3.63329 18.5356 3.63329C19.5212 3.63329 20.5068 3.63329 21.4924 3.77341V7.00634H19.4682C17.8679 7.00634 17.5606 7.72699 17.5606 8.77794V11.09H21.3758L20.8777 14.7233H17.5606V24.0217H24.0253C24.3982 24.0191 24.7551 23.878 25.0189 23.6289C25.2826 23.3799 25.432 23.0428 25.4348 22.6905V1.3312C25.432 0.978957 25.2826 0.641879 25.0189 0.392795C24.7551 0.143711 24.3982 0.00261905 24.0253 0Z" fill="#4C163F"/>
</svg>
