<svg width="25" height="25" viewBox="0 0 25 25" fill="none" xmlns="http://www.w3.org/2000/svg">
<path d="M13.2456 0.00147776C14.122 -0.00188543 14.9985 0.00692318 15.8746 0.0279009L16.1076 0.0363082C16.3767 0.0459165 16.6421 0.0579269 16.9628 0.0723395C18.2407 0.132392 19.1126 0.334168 19.8777 0.630826C20.6703 0.935892 21.3381 1.34905 22.0059 2.01683C22.6164 2.61688 23.089 3.34272 23.3907 4.14389C23.6873 4.90895 23.8891 5.78211 23.9491 7.06002C23.9636 7.3795 23.9756 7.64614 23.9852 7.91517L23.9924 8.14817C24.0137 9.02397 24.0229 9.90001 24.02 10.7761L24.0212 11.672V13.2454C24.0242 14.1219 24.0149 14.9983 23.9936 15.8745L23.9864 16.1075C23.9768 16.3765 23.9648 16.642 23.9503 16.9626C23.8903 18.2406 23.6861 19.1125 23.3907 19.8776C23.09 20.6796 22.6173 21.406 22.0059 22.0058C21.4053 22.6164 20.6791 23.0889 19.8777 23.3906C19.1126 23.6873 18.2407 23.8891 16.9628 23.9491C16.6421 23.9635 16.3767 23.9756 16.1076 23.9852L15.8746 23.9924C14.9985 24.0137 14.122 24.0229 13.2456 24.02L12.3496 24.0212H10.7775C9.90106 24.0242 9.02463 24.0149 8.14845 23.9936L7.91545 23.9864C7.63034 23.976 7.34529 23.964 7.06032 23.9503C5.78243 23.8903 4.91048 23.6861 4.14423 23.3906C3.34277 23.0896 2.61681 22.617 2.01721 22.0058C1.40595 21.4057 0.932958 20.6794 0.631231 19.8776C0.334578 19.1125 0.132806 18.2406 0.0727544 16.9626C0.0593785 16.6777 0.0473682 16.3926 0.0367237 16.1075L0.0307187 15.8745C0.00857614 14.9983 -0.00143348 14.1219 0.000692992 13.2454V10.7761C-0.00265903 9.90002 0.00614943 9.02397 0.0271156 8.14817L0.0355228 7.91517C0.045131 7.64614 0.0571412 7.3795 0.0715535 7.06002C0.131605 5.78091 0.333377 4.91015 0.63003 4.14389C0.931935 3.34233 1.40585 2.61669 2.01842 2.01803C2.6176 1.4064 3.3431 0.932976 4.14423 0.630826C4.91048 0.334168 5.78123 0.132392 7.06032 0.0723395L7.91545 0.0363082L8.14845 0.0303031C9.02422 0.00817117 9.90025 -0.00183862 10.7763 0.000276803L13.2456 0.00147776ZM12.0109 6.00671C11.2153 5.99545 10.4253 6.14245 9.68693 6.43917C8.94857 6.73588 8.27653 7.17638 7.70989 7.73508C7.14324 8.29378 6.69329 8.95953 6.38617 9.69363C6.07905 10.4277 5.9209 11.2156 5.9209 12.0113C5.9209 12.8071 6.07905 13.5949 6.38617 14.329C6.69329 15.0632 7.14324 15.7289 7.70989 16.2876C8.27653 16.8463 8.94857 17.2868 9.68693 17.5835C10.4253 17.8802 11.2153 18.0272 12.0109 18.016C13.6036 18.016 15.131 17.3833 16.2572 16.2571C17.3834 15.1309 18.0161 13.6034 18.0161 12.0107C18.0161 10.4181 17.3834 8.8906 16.2572 7.7644C15.131 6.6382 13.6036 6.00671 12.0109 6.00671ZM12.0109 8.4088C12.4896 8.39998 12.9651 8.48662 13.4099 8.66367C13.8547 8.84072 14.2597 9.10462 14.6013 9.43995C14.9429 9.77529 15.2143 10.1753 15.3996 10.6167C15.5849 11.0581 15.6803 11.532 15.6804 12.0107C15.6805 12.4894 15.5852 12.9634 15.4 13.4048C15.2149 13.8463 14.9437 14.2464 14.6021 14.5819C14.2606 14.9173 13.8557 15.1813 13.411 15.3585C12.9663 15.5357 12.4908 15.6225 12.0121 15.6139C11.0566 15.6139 10.1401 15.2343 9.46439 14.5585C8.78868 13.8828 8.40907 12.9663 8.40907 12.0107C8.40907 11.0551 8.78868 10.1387 9.46439 9.46293C10.1401 8.78721 11.0566 8.4076 12.0121 8.4076L12.0109 8.4088ZM18.3163 4.20514C17.9289 4.22065 17.5624 4.38548 17.2938 4.6651C17.0251 4.94473 16.8751 5.31747 16.8751 5.70525C16.8751 6.09302 17.0251 6.46576 17.2938 6.74539C17.5624 7.02501 17.9289 7.18984 18.3163 7.20535C18.7145 7.20535 19.0964 7.04718 19.3779 6.76563C19.6594 6.48408 19.8176 6.10222 19.8176 5.70404C19.8176 5.30587 19.6594 4.92401 19.3779 4.64246C19.0964 4.36091 18.7145 4.20274 18.3163 4.20274V4.20514Z" fill="#4C163F"/>
</svg>
