<svg width="27" height="25" viewBox="0 0 27 25" fill="none" xmlns="http://www.w3.org/2000/svg">
<g clip-path="url(#clip0_125_230)">
<path d="M0.630859 1.72056C0.630859 0.770197 1.46703 0 2.49873 0H24.1978C25.2295 0 26.0656 0.770197 26.0656 1.72056V22.3012C26.0656 23.2515 25.2295 24.0217 24.1978 24.0217H2.49873C1.46703 24.0217 0.630859 23.2515 0.630859 22.3012V1.72056ZM8.48862 20.1092V9.26188H4.67181V20.1092H8.48862ZM6.58101 7.78004C7.91157 7.78004 8.73979 6.94829 8.73979 5.90634C8.71594 4.84188 7.91316 4.03265 6.60644 4.03265C5.29973 4.03265 4.44608 4.84338 4.44608 5.90634C4.44608 6.94829 5.2743 7.78004 6.55557 7.78004H6.58101ZM14.3831 20.1092V14.0512C14.3831 13.7269 14.4086 13.4026 14.5103 13.1714C14.7853 12.5243 15.4132 11.8532 16.4688 11.8532C17.8502 11.8532 18.4018 12.8471 18.4018 14.3064V20.1092H22.2186V13.8876C22.2186 10.5546 20.3365 9.00515 17.8248 9.00515C15.7995 9.00515 14.8918 10.0561 14.3831 10.7963V10.8338H14.3577C14.3661 10.8213 14.3746 10.8088 14.3831 10.7963V9.26188H10.5679C10.6156 10.2798 10.5679 20.1092 10.5679 20.1092H14.3831Z" fill="#49143F"/>
</g>
<defs>
<clipPath id="clip0_125_230">
<rect width="25.4348" height="24.0217" fill="white" transform="translate(0.630859)"/>
</clipPath>
</defs>
</svg>
