<svg width="20" height="22" viewBox="0 0 20 22" fill="none" xmlns="http://www.w3.org/2000/svg">
<path d="M15.5 13.75C14.4 13.75 13.575 14.1625 12.75 14.85L8.35 12.375C8.4875 11.9625 8.625 11.4125 8.625 11C8.625 10.5875 8.4875 10.0375 8.35 9.625L12.75 7.15C13.575 7.8375 14.4 8.25 15.5 8.25C17.8375 8.25 19.625 6.4625 19.625 4.125C19.625 1.7875 17.8375 0 15.5 0C13.1625 0 11.375 1.7875 11.375 4.125V4.8125L6.5625 7.425C6.0125 7.15 5.325 6.875 4.5 6.875C2.3 6.875 0.375 8.6625 0.375 11C0.375 13.2 2.3 15.125 4.5 15.125C5.325 15.125 6.0125 14.85 6.5625 14.575L11.375 17.1875V17.875C11.375 20.2125 13.1625 22 15.5 22C17.8375 22 19.625 20.2125 19.625 17.875C19.625 15.5375 17.8375 13.75 15.5 13.75Z" fill="#4D173F"/>
</svg>
