<svg width="26" height="28" viewBox="0 0 26 28" fill="none" xmlns="http://www.w3.org/2000/svg">
<path d="M3.71429 0.875C1.66562 0.875 0 2.55664 0 4.625V23.375C0 25.4434 1.66562 27.125 3.71429 27.125H22.2857C24.3344 27.125 26 25.4434 26 23.375V4.625C26 2.55664 24.3344 0.875 22.2857 0.875H3.71429ZM20.9567 5.79688L14.9326 12.7461L22.0187 22.2031H16.4705L12.1295 16.4668L7.1558 22.2031H4.39911L10.8411 14.7676L4.04509 5.79688H9.73259L13.6616 11.041L18.2 5.79688H20.9567ZM18.7629 20.5391L8.90268 7.37305H7.26027L17.2308 20.5391H18.7571H18.7629Z" fill="#49143F"/>
</svg>
